<mxfile host="Electron" agent="Mozilla/5.0 (X11; Linux x86_64) AppleWebKit/537.36 (KHTML, like Gecko) draw.io/27.0.5 Chrome/134.0.6998.205 Electron/35.3.0 Safari/537.36" version="27.0.5">
  <diagram name="Page-1" id="ib0KKrDDxVYF5MeXXiUM">
    <mxGraphModel dx="2066" dy="1203" grid="1" gridSize="10" guides="1" tooltips="1" connect="1" arrows="1" fold="1" page="1" pageScale="1" pageWidth="850" pageHeight="1100" background="#ffffff" math="0" shadow="1">
      <root>
        <mxCell id="0" />
        <mxCell id="1" parent="0" />
        <mxCell id="14" value="Specimen and collection" style="edgeStyle=orthogonalEdgeStyle;endArrow=block;html=1;" parent="1" edge="1">
          <mxGeometry relative="1" as="geometry">
            <mxPoint x="750" y="350" as="targetPoint" />
          </mxGeometry>
        </mxCell>
        <mxCell id="15" value="report delivery offline" style="edgeStyle=orthogonalEdgeStyle;endArrow=block;html=1;" parent="1" edge="1">
          <mxGeometry relative="1" as="geometry">
            <mxPoint x="700" y="380" as="sourcePoint" />
          </mxGeometry>
        </mxCell>
        <mxCell id="sfKcnbmMzuwdX9yF3wZo-21" value="&lt;div&gt;&lt;font style=&quot;font-size: 11px;&quot;&gt;Longboard Rider&lt;/font&gt;&lt;/div&gt;" style="shape=umlActor;verticalLabelPosition=bottom;verticalAlign=top;html=1;outlineConnect=0;strokeColor=#666666;align=center;fontFamily=Helvetica;fontSize=12;fontColor=#333333;labelBackgroundColor=none;fillColor=#f5f5f5;horizontal=1;textShadow=0;" parent="1" vertex="1">
          <mxGeometry x="385" y="90" width="30" height="60" as="geometry" />
        </mxCell>
      </root>
    </mxGraphModel>
  </diagram>
</mxfile>
